name analog
datacolumns 19
datarows 58
range 0.1575 0.186
endheader
time	ground_force_vx	ground_force_vy	ground_force_vz	ground_force_px	ground_force_py	ground_force_pz	l_ground_force_vx	l_ground_force_vy	l_ground_force_vz	l_ground_force_px	l_ground_force_py	l_ground_force_pz	ground_torque_x	ground_torque_y	ground_torque_z	l_ground_torque_x	l_ground_torque_y	l_ground_torque_z
0.1575	-0.0	-0.0	-0.0	-0.0	-0.0	-0.0	0.5728062987327576	0.8554408550262451	-851.3912353515625	-0.0	-0.0	-0.0	-0.0	-0.0	-0.0	243059.984375	-4606.95263671875	-478.2277221679688
0.158	-0.0	-0.0	-0.0	-0.0	-0.0	-0.0	1.1052210330963137	1.6781120300292969	-850.2930908203125	-0.0	-0.0	-0.0	-0.0	-0.0	-0.0	242749.46875	-4747.6015625	-519.133544921875
0.1585	-0.0	-0.0	-0.0	-0.0	-0.0	-0.0	2.129058837890625	2.9074857234954834	-849.0283203125	-0.0	-0.0	-0.0	-0.0	-0.0	-0.0	242974.90625	-5134.80810546875	-235.05963134765625
0.159	-0.0	-0.0	-0.0	-0.0	-0.0	-0.0	2.572612762451172	3.66879153251648	-849.674072265625	-0.0	-0.0	-0.0	-0.0	-0.0	-0.0	242450.75	-5414.38818359375	-65.71636962890625
0.1595	-0.0	-0.0	-0.0	-0.0	-0.0	-0.0	3.173067808151245	3.859123945236206	-847.497802734375	-0.0	-0.0	-0.0	-0.0	-0.0	-0.0	242260.921875	-5717.36181640625	62.56498336791992
0.16	-0.0	-0.0	-0.0	-0.0	-0.0	-0.0	3.418596744537353	4.48393440246582	-845.189697265625	-0.0	-0.0	-0.0	-0.0	-0.0	-0.0	242103.15625	-5900.8486328125	405.1153564453125
0.1605	-0.0	-0.0	-0.0	-0.0	-0.0	-0.0	2.76450777053833	5.393759250640869	-843.9806518554688	-0.0	-0.0	-0.0	-0.0	-0.0	-0.0	241264.609375	-5942.42919921875	247.5492248535156
0.161	-0.0	-0.0	-0.0	-0.0	-0.0	-0.0	1.9043164253234863	5.2993011474609375	-841.536865234375	-0.0	-0.0	-0.0	-0.0	-0.0	-0.0	240568.28125	-6196.23828125	-42.78731155395508
0.1615	-0.0	-0.0	-0.0	-0.0	-0.0	-0.0	0.68895024061203	5.938198089599609	-838.208740234375	-0.0	-0.0	-0.0	-0.0	-0.0	-0.0	240457.90625	-6237.0927734375	-413.29827880859375
0.162	-0.0	-0.0	-0.0	-0.0	-0.0	-0.0	-0.709686279296875	6.11491584777832	-837.9034423828125	-0.0	-0.0	-0.0	-0.0	-0.0	-0.0	239992.984375	-6310.82568359375	-696.970458984375
0.1625	-0.0	-0.0	-0.0	-0.0	-0.0	-0.0	-1.1115344762802124	6.509767532348633	-836.0331420898438	-0.0	-0.0	-0.0	-0.0	-0.0	-0.0	239927.390625	-6343.77587890625	-665.69189453125
0.163	-0.0	-0.0	-0.0	-0.0	-0.0	-0.0	-1.7064201831817627	7.0607075691223145	-835.8888549804688	-0.0	-0.0	-0.0	-0.0	-0.0	-0.0	239764.71875	-6496.64990234375	-756.6974487304688
0.1635	-0.0	-0.0	-0.0	-0.0	-0.0	-0.0	-1.9516372680664065	7.818841457366943	-835.9515991210938	-0.0	-0.0	-0.0	-0.0	-0.0	-0.0	239905.25	-6975.71044921875	-842.43701171875
0.164	-0.0	-0.0	-0.0	-0.0	-0.0	-0.0	-1.8418984413146973	8.369624137878418	-836.0345458984375	-0.0	-0.0	-0.0	-0.0	-0.0	-0.0	240170.15625	-7335.541015625	-845.3780517578125
0.1645	-0.0	-0.0	-0.0	-0.0	-0.0	-0.0	-0.7983970642089844	8.3065185546875	-838.1469116210938	-0.0	-0.0	-0.0	-0.0	-0.0	-0.0	240388.90625	-7698.34765625	-344.4950256347656
0.165	-0.0	-0.0	-0.0	-0.0	-0.0	-0.0	0.9335295557975768	8.302238464355469	-838.4794311523438	-0.0	-0.0	-0.0	-0.0	-0.0	-0.0	240754.03125	-8112.20654296875	107.2877960205078
0.1655	-0.0	-0.0	-0.0	-0.0	-0.0	-0.0	2.9525575637817383	8.302238464355469	-837.895751953125	-0.0	-0.0	-0.0	-0.0	-0.0	-0.0	240574.203125	-8487.662109375	851.5892333984375
0.166	-0.0	-0.0	-0.0	-0.0	-0.0	-0.0	4.50297212600708	8.295072555541992	-835.603515625	-0.0	-0.0	-0.0	-0.0	-0.0	-0.0	239909.890625	-8746.2861328125	1200.1895751953125
0.1665	-0.0	-0.0	-0.0	-0.0	-0.0	-0.0	4.389501571655273	7.836036682128906	-832.54541015625	-0.0	-0.0	-0.0	-0.0	-0.0	-0.0	238874.328125	-8753.22265625	1213.077880859375
0.167	-0.0	-0.0	-0.0	-0.0	-0.0	-0.0	4.016539096832275	7.309408187866211	-828.77685546875	-0.0	-0.0	-0.0	-0.0	-0.0	-0.0	237382.515625	-8688.486328125	1140.1571044921875
0.1675	-0.0	-0.0	-0.0	-0.0	-0.0	-0.0	4.080696105957031	6.977413177490234	-824.7691040039062	-0.0	-0.0	-0.0	-0.0	-0.0	-0.0	236089.53125	-8549.6201171875	1274.0245361328125
0.168	-0.0	-0.0	-0.0	-0.0	-0.0	-0.0	4.790382385253906	6.2681169509887695	-820.061767578125	-0.0	-0.0	-0.0	-0.0	-0.0	-0.0	234463.453125	-8719.822265625	1413.5836181640625
0.1685	-0.0	-0.0	-0.0	-0.0	-0.0	-0.0	4.986937999725342	6.626550674438477	-815.7879638671875	-0.0	-0.0	-0.0	-0.0	-0.0	-0.0	233136.515625	-8563.61328125	1391.4129638671875
0.169	-0.0	-0.0	-0.0	-0.0	-0.0	-0.0	4.370656967163086	6.1416449546813965	-812.7225341796875	-0.0	-0.0	-0.0	-0.0	-0.0	-0.0	232121.1875	-9092.134765625	1034.20556640625
0.1695	-0.0	-0.0	-0.0	-0.0	-0.0	-0.0	4.435539245605469	5.609440326690674	-811.7774658203125	-0.0	-0.0	-0.0	-0.0	-0.0	-0.0	231441.578125	-9656.2998046875	1011.795166015625
0.17	-0.0	-0.0	-0.0	-0.0	-0.0	-0.0	5.146961212158203	4.749451160430908	-813.174072265625	-0.0	-0.0	-0.0	-0.0	-0.0	-0.0	231211.34375	-10737.2265625	1132.100341796875
0.1705	-0.0	-0.0	-0.0	-0.0	-0.0	-0.0	5.188828945159912	3.7761263847351074	-814.2274169921875	-0.0	-0.0	-0.0	-0.0	-0.0	-0.0	231016.859375	-11707.150390625	1073.0576171875
0.171	-0.0	-0.0	-0.0	-0.0	-0.0	-0.0	4.700366973876953	2.895457983016968	-818.062255859375	-0.0	-0.0	-0.0	-0.0	-0.0	-0.0	231745.796875	-12753.4375	864.7717895507812
0.1715	-0.0	-0.0	-0.0	-0.0	-0.0	-0.0	4.0118279457092285	2.250653028488159	-823.389892578125	-0.0	-0.0	-0.0	-0.0	-0.0	-0.0	232726.5625	-13443.4375	277.73046875
0.17200000000000001	-0.0	-0.0	-0.0	-0.0	-0.0	-0.0	3.3279597759246826	1.921213269233704	-828.7062377929688	-0.0	-0.0	-0.0	-0.0	-0.0	-0.0	234002.15625	-14294.2587890625	-42.07769775390625
0.17250000000000001	-0.0	-0.0	-0.0	-0.0	-0.0	-0.0	3.5049314498901367	1.8103107213974	-834.9104614257812	-0.0	-0.0	-0.0	-0.0	-0.0	-0.0	235515.59375	-15605.9365234375	-145.17697143554688
0.17300000000000001	-0.0	-0.0	-0.0	-0.0	-0.0	-0.0	5.056514739990234	2.252371311187744	-842.3316040039062	-0.0	-0.0	-0.0	-0.0	-0.0	-0.0	236403.640625	-16710.716796875	389.9138488769531
0.17350000000000002	-0.0	-0.0	-0.0	-0.0	-0.0	-0.0	7.474184513092041	2.03139877319336	-847.478759765625	-0.0	-0.0	-0.0	-0.0	-0.0	-0.0	237904.671875	-17972.162109375	925.3018188476562
0.17400000000000002	-0.0	-0.0	-0.0	-0.0	-0.0	-0.0	8.893159866333008	1.7886732816696167	-851.4069213867188	-0.0	-0.0	-0.0	-0.0	-0.0	-0.0	238531.421875	-18910.677734375	1363.85546875
0.17450000000000002	-0.0	-0.0	-0.0	-0.0	-0.0	-0.0	10.223697662353516	1.4134390354156494	-856.1185913085938	-0.0	-0.0	-0.0	-0.0	-0.0	-0.0	239149.390625	-19664.66015625	1461.26611328125
0.17500000000000002	-0.0	-0.0	-0.0	-0.0	-0.0	-0.0	10.6224365234375	0.7948951721191406	-857.60205078125	-0.0	-0.0	-0.0	-0.0	-0.0	-0.0	238805.265625	-20442.2890625	1661.4813232421875
0.17550000000000002	-0.0	-0.0	-0.0	-0.0	-0.0	-0.0	12.06383991241455	-0.1766433715820312	-854.3707275390625	-0.0	-0.0	-0.0	-0.0	-0.0	-0.0	237866.984375	-20552.107421875	1988.5404052734373
0.176	-0.0	-0.0	-0.0	-0.0	-0.0	-0.0	12.552079200744627	-2.36235785484314	-850.9707641601562	-0.0	-0.0	-0.0	-0.0	-0.0	-0.0	236418.546875	-20802.0703125	2166.302978515625
0.1765	-0.0	-0.0	-0.0	-0.0	-0.0	-0.0	12.575723648071287	-4.6151299476623535	-847.3909912109375	-0.0	-0.0	-0.0	-0.0	-0.0	-0.0	235152.71875	-20801.52734375	2151.106689453125
0.177	-0.0	-0.0	-0.0	-0.0	-0.0	-0.0	11.998515129089355	-6.821710586547852	-842.9408569335938	-0.0	-0.0	-0.0	-0.0	-0.0	-0.0	233161.3125	-20704.322265625	2128.03466796875
0.1775	-0.0	-0.0	-0.0	-0.0	-0.0	-0.0	12.619531631469728	-8.409693717956543	-835.6154174804688	-0.0	-0.0	-0.0	-0.0	-0.0	-0.0	231047.515625	-20236.107421875	2320.6337890625
0.178	-0.0	-0.0	-0.0	-0.0	-0.0	-0.0	12.842379570007324	-8.965642929077148	-827.415771484375	-0.0	-0.0	-0.0	-0.0	-0.0	-0.0	228826.515625	-19644.244140625	2490.386962890625
0.1785	-0.0	-0.0	-0.0	-0.0	-0.0	-0.0	12.64236545562744	-9.497803688049316	-821.1151733398438	-0.0	-0.0	-0.0	-0.0	-0.0	-0.0	226625.359375	-18550.26953125	2512.829345703125
0.179	-0.0	-0.0	-0.0	-0.0	-0.0	-0.0	10.07228660583496	-9.78102684020996	-818.5811767578125	-0.0	-0.0	-0.0	-0.0	-0.0	-0.0	225349.375	-17720.53515625	1734.4215087890625
0.1795	-0.0	-0.0	-0.0	-0.0	-0.0	-0.0	7.165414333343506	-9.05163288116455	-815.7980346679688	-0.0	-0.0	-0.0	-0.0	-0.0	-0.0	225042.890625	-16850.00390625	901.2590942382812
0.18	-0.0	-0.0	-0.0	-0.0	-0.0	-0.0	4.924877166748047	-8.211071968078613	-818.490234375	-0.0	-0.0	-0.0	-0.0	-0.0	-0.0	225526.390625	-16143.8984375	224.3749237060547
0.1805	-0.0	-0.0	-0.0	-0.0	-0.0	-0.0	3.0391335487365723	-6.937966823577881	-820.0791625976562	-0.0	-0.0	-0.0	-0.0	-0.0	-0.0	226559.890625	-15722.2958984375	-391.8576354980469
0.181	-0.0	-0.0	-0.0	-0.0	-0.0	-0.0	2.1094229221343994	-5.103107929229736	-826.7137451171875	-0.0	-0.0	-0.0	-0.0	-0.0	-0.0	228198.9375	-15235.5546875	-665.536865234375
0.1815	-0.0	-0.0	-0.0	-0.0	-0.0	-0.0	2.1751914024353027	-2.856337070465088	-834.381591796875	-0.0	-0.0	-0.0	-0.0	-0.0	-0.0	230390.703125	-15270.7392578125	-890.2882690429688
0.182	-0.0	-0.0	-0.0	-0.0	-0.0	-0.0	2.5031888484954834	-0.8832168579101562	-840.2257690429688	-0.0	-0.0	-0.0	-0.0	-0.0	-0.0	232627.8125	-15281.3203125	-763.2597045898438
0.1825	-0.0	-0.0	-0.0	-0.0	-0.0	-0.0	3.745015144348145	1.5014686584472656	-847.0260009765625	-0.0	-0.0	-0.0	-0.0	-0.0	-0.0	234303.359375	-15453.5166015625	-574.731689453125
0.183	-0.0	-0.0	-0.0	-0.0	-0.0	-0.0	4.281363010406494	2.872581243515014	-848.4384765625	-0.0	-0.0	-0.0	-0.0	-0.0	-0.0	235806.65625	-15388.6455078125	-336.6477355957031
0.1835	-0.0	-0.0	-0.0	-0.0	-0.0	-0.0	3.903274536132813	4.174333095550537	-853.1430053710938	-0.0	-0.0	-0.0	-0.0	-0.0	-0.0	236439.3125	-15215.7958984375	-551.9837646484375
0.184	-0.0	-0.0	-0.0	-0.0	-0.0	-0.0	3.058161497116089	4.509106636047363	-853.6023559570312	-0.0	-0.0	-0.0	-0.0	-0.0	-0.0	236848.59375	-15262.41015625	-839.7366943359375
0.1845	-0.0	-0.0	-0.0	-0.0	-0.0	-0.0	2.110646963119507	4.216110706329346	-853.2540893554688	-0.0	-0.0	-0.0	-0.0	-0.0	-0.0	236520.78125	-15342.33203125	-954.5130615234376
0.185	-0.0	-0.0	-0.0	-0.0	-0.0	-0.0	1.9516372680664065	3.1743502616882324	-852.6076049804688	-0.0	-0.0	-0.0	-0.0	-0.0	-0.0	236195.578125	-15715.650390625	-1077.9080810546875
0.1855	-0.0	-0.0	-0.0	-0.0	-0.0	-0.0	2.791680335998535	2.5486900806427	-849.3433227539062	-0.0	-0.0	-0.0	-0.0	-0.0	-0.0	235532.6875	-15921.677734375	-738.9682006835938
0.186	-0.0	-0.0	-0.0	-0.0	-0.0	-0.0	4.23451042175293	1.4423445463180542	-845.7156372070312	-0.0	-0.0	-0.0	-0.0	-0.0	-0.0	233989.25	-16258.1982421875	-121.2599868774414
